<svg xmlns="http://www.w3.org/2000/svg" width="26.356" height="26.356" viewBox="0 0 26.356 26.356"><path d="M3.861,26.356h8.6V16.988H9.369V13.9h3.089V10.038a3.865,3.865,0,0,1,3.861-3.861h3.861V9.266H17.091a1.546,1.546,0,0,0-1.544,1.544V13.9H20.04l-.515,3.089H15.546v9.369H22.5A3.865,3.865,0,0,0,26.356,22.5V3.861A3.865,3.865,0,0,0,22.5,0H3.861A3.865,3.865,0,0,0,0,3.861V22.5A3.865,3.865,0,0,0,3.861,26.356ZM1.544,3.861A2.319,2.319,0,0,1,3.861,1.544H22.5a2.319,2.319,0,0,1,2.316,2.316V22.5A2.319,2.319,0,0,1,22.5,24.812H17.091v-6.28h3.743l1.03-6.177H17.091V10.81h4.633V4.633H16.318a5.411,5.411,0,0,0-5.405,5.405v2.316H7.825v6.177h3.089v6.28H3.861A2.319,2.319,0,0,1,1.544,22.5Zm0,0" fill="#333"/></svg>