<svg xmlns="http://www.w3.org/2000/svg" width="32.53" height="31.265" viewBox="0 0 32.53 31.265"><g transform="translate(-568.47 -1167.5)"><path d="M32.53,23.62,21.757,21.346,16.265,11.8l-5.492,9.543L0,23.62l7.379,8.172L6.213,42.741l10.052-4.493,10.052,4.493L25.151,31.792ZM16.265,36.031,8.6,39.458l.89-8.351L3.859,24.874l8.217-1.734,4.189-7.279,4.189,7.279,8.217,1.734-5.628,6.233.89,8.351Z" transform="translate(568.47 1155.697)" fill="#ff7d87"/><path d="M-5937.786-1543.235v0l1.167-10.948-7.381-8.172,10.775-2.275,5.492-9.544.234.407v26.145l-.234-.1-10.051,4.492Z" transform="translate(6512.5 2742)" fill="#ff7d87"/></g></svg>