<svg id="instagram" xmlns="http://www.w3.org/2000/svg" width="26.356" height="26.356" viewBox="0 0 26.356 26.356">
  <path id="Path_1" data-name="Path 1" d="M3.861,26.356H22.5A3.865,3.865,0,0,0,26.356,22.5V3.861A3.865,3.865,0,0,0,22.5,0H3.861A3.865,3.865,0,0,0,0,3.861V22.5A3.865,3.865,0,0,0,3.861,26.356ZM1.544,3.861A2.319,2.319,0,0,1,3.861,1.544H22.5a2.319,2.319,0,0,1,2.316,2.316V22.5A2.319,2.319,0,0,1,22.5,24.812H3.861A2.319,2.319,0,0,1,1.544,22.5Zm0,0"/>
  <path id="Path_2" data-name="Path 2" d="M127.949,134.9A6.949,6.949,0,1,0,121,127.949,6.957,6.957,0,0,0,127.949,134.9Zm0-12.355a5.405,5.405,0,1,1-5.405,5.405A5.411,5.411,0,0,1,127.949,122.544Zm0,0" transform="translate(-114.771 -114.771)"/>
  <path id="Path_3" data-name="Path 3" d="M363.317,65.633A2.316,2.316,0,1,0,361,63.316,2.319,2.319,0,0,0,363.317,65.633Zm0-3.089a.772.772,0,1,1-.772.772A.773.773,0,0,1,363.317,62.544Zm0,0" transform="translate(-342.417 -57.86)"/>
</svg>
