<svg xmlns="http://www.w3.org/2000/svg" viewBox="0 0 231 231" width="231" height="231">
	<style>
		tspan { white-space:pre }
		.shp0 { fill: #ff7d87 } 
		.shp1 { fill: #ffffff } 
	</style>
	<path id="Shape 1" class="shp0" d="M115.5 231C51.63 231 0 179.37 0 115.5C0 51.63 51.63 0 115.5 0C179.37 0 231 51.63 231 115.5C231 179.37 179.37 231 115.5 231Z" />
	<path id="Shape 5" class="shp1" d="M76.67 112.7C76.17 112.76 114.3 156.12 205.8 163.18C205.8 163.18 132.75 144.03 105.6 87L81.8 112.18" />
	<path id="Shape 4" class="shp1" d="M53.63 63L92.84 102.22L56.77 138.29L53.63 63Z" />
	<path id="Shape 4 copy" class="shp1" d="M53 63.13L92.22 102.35L128.29 66.27L53 63.13Z" />
</svg>