<svg xmlns="http://www.w3.org/2000/svg" viewBox="0 0 128 128" width="128" height="128">
	<style>
		tspan { white-space:pre }
		.shp0 { fill: #ff7d87 } 
		.shp1 { fill: #ffffff } 
	</style>
	<g id="Layer">
		<path id="Layer" class="shp0" d="M16.61 21.37C33.85 2.2 60.94 -4.69 85.24 3.91C109.55 12.5 126.28 34.9 127.63 60.64C128.98 86.39 114.68 110.41 91.41 121.5C68.14 132.6 40.48 128.57 21.33 111.31C15.13 105.71 10.09 98.94 6.49 91.39C2.9 83.85 0.83 75.67 0.39 67.32C-0.05 58.97 1.16 50.62 3.94 42.74C6.72 34.86 11.03 27.6 16.61 21.37L16.61 21.37Z" />
		<path id="Layer" class="shp1" d="M34.18 37.04L84.59 34.4L52.73 53.75L36.61 87.69L34.18 37.04Z" />
		<path id="Layer" class="shp1" d="M46.38 64.75C46.38 64.75 38.42 47.43 44.58 45.06C44.77 44.93 44.95 44.79 45.12 44.64C45.29 44.48 45.44 44.31 45.58 44.13C45.72 43.95 45.85 43.76 45.96 43.56C46.07 43.36 46.16 43.15 46.24 42.93C47.79 40 49.83 36.54 60.72 48.82C108.31 102.45 126.82 54.71 126.82 54.71C126.82 54.71 126.93 54.78 127.12 54.92C127.63 58.48 127.85 62.07 127.75 65.66C127.66 69.25 127.26 72.83 126.57 76.35C125.87 79.87 124.88 83.33 123.6 86.69C122.32 90.04 120.76 93.28 118.93 96.38C88.73 121.66 46.38 64.75 46.38 64.75Z" />
	</g>
</svg>