<svg xmlns="http://www.w3.org/2000/svg" width="35.907" height="34.197" viewBox="0 0 35.907 34.197"><g transform="translate(0 -13.415)"><path d="M139.6,32.607a9.6,9.6,0,1,0-9.61-9.61A9.612,9.612,0,0,0,139.6,32.607Zm0-16.686A7.075,7.075,0,1,1,132.522,23,7.1,7.1,0,0,1,139.6,15.921Z" transform="translate(-121.703)"/><path d="M1.268,354.251H34.639a1.258,1.258,0,0,0,1.268-1.268,12.072,12.072,0,0,0-12.057-12.057H12.057A12.072,12.072,0,0,0,0,352.983,1.258,1.258,0,0,0,1.268,354.251Zm10.79-10.79H23.849a9.516,9.516,0,0,1,9.434,8.254H2.624A9.541,9.541,0,0,1,12.057,343.461Z" transform="translate(0 -306.639)"/></g></svg>