<svg xmlns="http://www.w3.org/2000/svg" width="30.644" height="25.08" viewBox="0 0 30.644 25.08">
  <path id="twitter" d="M30.643,3.35c-1.928.089-1.886.082-2.1.1L29.681.189S26.118,1.5,25.215,1.735a7.15,7.15,0,0,0-8.42-.677,5.832,5.832,0,0,0-2.8,6A15.554,15.554,0,0,1,3.915,1.381L3.069.366l-.632,1.16a7.01,7.01,0,0,0-.747,4.719,6.78,6.78,0,0,0,.657,1.842l-.725-.281L1.536,9.018a6.465,6.465,0,0,0,1.1,3.843,6.834,6.834,0,0,0,.854,1.053l-.375-.058.457,1.388a6.75,6.75,0,0,0,3.47,4.02c-1.618.687-2.925,1.125-5.074,1.832L0,21.744l1.816.993a19.057,19.057,0,0,0,5.555,2.022c5.373.843,11.421.156,15.494-3.511,3.43-3.089,4.555-7.483,4.322-12.056a2.857,2.857,0,0,1,.534-1.86c.761-1.015,2.919-3.974,2.923-3.981ZM26.284,6.256a4.653,4.653,0,0,0-.89,3.027c.236,4.612-1.019,8.189-3.73,10.631-3.167,2.852-8.276,3.972-14.015,3.072a13.9,13.9,0,0,1-3-.892,47.616,47.616,0,0,0,5.439-2.236l3.136-1.484-3.462-.222A4.9,4.9,0,0,1,5.87,15.937a6.21,6.21,0,0,0,1.318-.22l3.3-.92-3.33-.815a4.96,4.96,0,0,1-3.029-2.107,5.079,5.079,0,0,1-.656-1.449,8.313,8.313,0,0,0,1.351.216l3.082.3-2.442-1.9A5.14,5.14,0,0,1,3.518,3.626,17.863,17.863,0,0,0,16.106,9.044a10.63,10.63,0,0,0-.184-1.523,4.122,4.122,0,0,1,1.812-4.935,5.363,5.363,0,0,1,6.327.524,1.607,1.607,0,0,0,1.474.394,12.409,12.409,0,0,0,1.215-.369l-.774,2.211h.988l-.679.909Zm0,0" transform="translate(0 0)"/>
</svg>
